<svg xmlns="http://www.w3.org/2000/svg" width="1366" height="538.788" viewBox="0 0 1366 538.788">
  <g id="Group_51902" data-name="Group 51902" transform="translate(0 -2835)">
    <path id="Path_74832" data-name="Path 74832" d="M0,0H1366V424.448H0Z" transform="translate(0 2949.34)" fill="#d6d6d6"/>
    <g id="Group_50480" data-name="Group 50480" transform="translate(0 2835)">
      <path id="Path_74717" data-name="Path 74717" d="M928.4-1656.519c219.6.466,425.97,0,425.97,0s37.042,1.464,58.175,34.938,37.7,64.677,37.7,64.677,20.273,28.6,54.4,30.406,115.131.954,115.131.954v-269.573H926.832S928.4-1762.81,928.4-1656.519Z" transform="translate(-253.779 1795.117)" fill="#fff"/>
      <path id="Path_74718" data-name="Path 74718" d="M1658.895-1656.519c-219.6.466-425.97,0-425.97,0s-37.042,1.464-58.175,34.938-37.7,64.677-37.7,64.677-20.273,28.6-54.4,30.406-119.708.954-119.708.954v-269.573h697.524S1658.895-1762.81,1658.895-1656.519Z" transform="translate(-962.939 1795.117)" fill="#fff"/>
    </g>
  </g>
</svg>
