<svg xmlns="http://www.w3.org/2000/svg" width="42" height="42" viewBox="0 0 42 42">
  <g id="Group_51904" data-name="Group 51904" transform="translate(-548 -3190.886)">
    <rect id="Rectangle_14633" data-name="Rectangle 14633" width="42" height="42" rx="8" transform="translate(548 3190.886)" fill="#fff" opacity="0.6"/>
    <path id="Path_74753" data-name="Path 74753" d="M494.4,338.687h-.119a3.69,3.69,0,0,1-1.669-1.788v-.119c.226-.138.115-.36.115-.539q.009-11.852,0-23.7c0-.18.107-.4-.115-.541v-.119a2.492,2.492,0,0,1,1.786-1.676h25.048a2.03,2.03,0,0,1,1.683,1.786,1.672,1.672,0,0,0-.018.177q0,12.069.005,24.138c0,.161-.1.363.116.479v.119c-.4.77-.828,1.5-1.786,1.674q-12.345,0-24.689-.007C494.628,338.567,494.468,338.5,494.4,338.687Zm13.391-16.152c0-.411-.017-.824.005-1.234.019-.344-.069-.5-.456-.487q-1.548.037-3.1,0c-.386-.009-.457.143-.456.486q.013,6.311,0,12.621c0,.413.15.49.517.483,1.032-.02,2.066-.03,3.1,0,.464.015.6-.111.6-.589-.023-2.2-.006-4.405,0-6.608a4.241,4.241,0,0,1,.337-1.74,2.223,2.223,0,0,1,2.4-1.271,1.86,1.86,0,0,1,1.819,1.59,6.591,6.591,0,0,1,.178,1.593c0,.883,0,1.765,0,3.01,0,.918,0,2.2-.011,3.479,0,.409.1.548.526.536,1.052-.029,2.106-.034,3.157,0,.46.016.559-.134.555-.569-.023-2.48-.013-4.961-.018-7.442a11.314,11.314,0,0,0-.276-2.419,4.019,4.019,0,0,0-3.59-3.389A5.168,5.168,0,0,0,507.789,322.535ZM501.1,327.6c0-2.083-.01-4.167.009-6.25,0-.407-.1-.551-.526-.539q-1.577.044-3.157,0c-.414-.011-.538.106-.536.528q.023,6.28,0,12.559c0,.383.1.515.5.505,1.052-.026,2.105-.03,3.157,0,.44.013.573-.1.568-.556C501.089,331.768,501.1,329.685,501.1,327.6Zm-2.091-13.5a2.442,2.442,0,0,0-2.446,2.457,2.5,2.5,0,0,0,2.438,2.435,2.468,2.468,0,0,0,2.462-2.457A2.407,2.407,0,0,0,499.013,314.1Z" transform="translate(62.391 2887.686)" fill="#232a35"/>
  </g>
</svg>
