<svg id="Group_51846" data-name="Group 51846" xmlns="http://www.w3.org/2000/svg" xmlns:xlink="http://www.w3.org/1999/xlink" width="562.495" height="104.564" viewBox="0 0 562.495 104.564">
  <defs>
    <clipPath id="clip-path">
      <rect id="Rectangle_19031" data-name="Rectangle 19031" width="562.495" height="104.564" fill="#fff"/>
    </clipPath>
  </defs>
  <g id="Group_51845" data-name="Group 51845" clip-path="url(#clip-path)">
    <path id="Path_74847" data-name="Path 74847" d="M180.477,24.668,191.662,20.6c.243,1.811.477,3.555.712,5.3l.509.572a4.291,4.291,0,0,1,.383-1.2c3.482-5,9.056-6.793,15.378-4.983,4.881,1.4,7.8,5.643,7.95,11.835.116,4.9-.028,9.8.107,14.694.087,3.145-1.116,6.689,3.083,9.265H205c-.025-.235-.129-.611-.059-.647,2.518-1.3,2.236-3.616,2.222-5.874-.035-5.426.01-10.853-.058-16.278a15.816,15.816,0,0,0-.56-4.007c-.77-2.759-2.493-4.629-5.484-4.959a6.451,6.451,0,0,0-6.713,3.232,11.447,11.447,0,0,0-1.658,5.063q-.315,9.6-.049,19.21c.036,1.334,1.191,2.637,1.933,4.167h-13.89c3.058-2.165,2.338-5.272,2.358-8.123.038-5.577.015-11.154.009-16.731,0-2.351.167-4.78-2.824-5.913l.251-.556" transform="translate(-68.791 -7.482)" fill="#fff"/>
    <path id="Path_74848" data-name="Path 74848" d="M607.682,24.936l11.87-4.29c.236,1.859.459,3.614.681,5.363.191-.026.417,0,.457-.071,3.163-5.751,9.466-7.231,15.72-5.625,4.9,1.26,7.888,5.6,8.037,11.756.13,5.348.041,10.7.09,16.051.025,2.773-.714,5.8,2.347,7.958H632.847c0-.176-.1-.656.014-.714,2.346-1.185,2.184-3.306,2.165-5.442-.05-5.5,0-11-.061-16.5a16.423,16.423,0,0,0-.54-4.01c-.738-2.764-2.423-4.671-5.412-5.038a6.492,6.492,0,0,0-6.881,3.328,11.636,11.636,0,0,0-1.594,5.086q-.305,9.485-.043,18.983c.041,1.407,1.2,2.781,1.922,4.328H607.884c4.15-2.7,2.9-6.386,2.993-9.677.135-4.82.043-9.646.032-14.469-.006-2.61.4-5.38-3.226-7.013" transform="translate(-231.948 -7.522)" fill="#fff"/>
    <path id="Path_74849" data-name="Path 74849" d="M431.321,22.763l11.409-1.217c.059,1.039.15,1.907.151,2.776.011,7.836-.024,15.672.022,23.507.017,3-.564,6.152,1.812,8.691-4.428,1.744-8.723-.14-11.113-4.917-1.739,2.911-3.939,5.228-7.264,5.888-8.921,1.769-16.25-1.186-16.528-13.281-.122-5.347-.049-10.7-.043-16.048,0-1.549-.043-3.018-1.694-3.866a1.213,1.213,0,0,1-.484-1.078,1.394,1.394,0,0,1,1.032-.646c3.42-.344,6.847-.631,10.626-.966v2.531c0,6.254-.08,12.509.046,18.76a24.2,24.2,0,0,0,.984,6.425,5.654,5.654,0,0,0,5.338,4.155,5.8,5.8,0,0,0,6.265-3.444,12.663,12.663,0,0,0,1.33-4.715c.2-5.794.288-11.6.114-17.393-.046-1.562-1.164-3.092-2-5.161" transform="translate(-155.566 -8.224)" fill="#fff"/>
    <path id="Path_74850" data-name="Path 74850" d="M710.031,56.059c-3.364,1.652-8.467-.34-10.431-4.708a3.816,3.816,0,0,0-.636.525,13.833,13.833,0,0,1-15.75,4.593c-6.686-2.358-8.225-10.772-2.887-15.753,2.86-2.669,6.513-3.629,10.113-4.7,2.444-.726,4.9-1.418,7.342-2.139a2.054,2.054,0,0,0,1.671-2.507,65.265,65.265,0,0,0-.917-6.673c-.618-2.466-2.249-3.362-4.963-3.271-2.5.084-3.842,1.156-4.49,3.623-.305,1.161-.5,2.352-.846,3.5a3.815,3.815,0,0,1-5.069,2.78,4,4,0,0,1-2.356-5.148,7.671,7.671,0,0,1,5.1-5.042,22.4,22.4,0,0,1,15.463-.263,9.874,9.874,0,0,1,7.123,9.461c.32,6.542.234,13.1.476,19.649a45.277,45.277,0,0,0,1.056,6.073M699.374,36.135c-2.836,1.316-5.4,2.365-7.814,3.681a12.275,12.275,0,0,0-3.432,2.849,5.734,5.734,0,0,0-.8,6.532c1.1,2.214,3.2,2.773,5.536,2.633a6.678,6.678,0,0,0,6.471-6.542c.184-2.912.036-5.845.036-9.153" transform="translate(-258.449 -7.492)" fill="#fff"/>
    <path id="Path_74851" data-name="Path 74851" d="M543.336,38.6c-.012-10.971,7.563-18.837,18.148-18.847,10.634-.009,18.252,7.791,18.281,18.718.03,10.955-7.54,18.8-18.162,18.819-10.692.02-18.255-7.719-18.267-18.69m27.387,6.121c-.39-7.239-1.323-13.229-4.708-18.542-1.8-2.819-4.155-4.905-7.818-4.17-3.513.7-4.646,3.519-5.266,6.594A29.18,29.18,0,0,0,554.3,44.384a27.142,27.142,0,0,0,4.832,8.739c3.4,3.85,8.707,2.481,10.369-2.406a39.882,39.882,0,0,0,1.227-5.991" transform="translate(-207.388 -7.541)" fill="#fff"/>
    <path id="Path_74852" data-name="Path 74852" d="M264.183,57.7c-4-.563-7.779-1.027-11.134-3.194a7.24,7.24,0,0,1-3.689-5.395c-.174-1.706.319-3.165,2.15-3.76a3.171,3.171,0,0,1,4.123,1.8c.848,1.669,1.4,3.489,2.268,5.149,1.569,3.012,4.341,3.43,7.365,3.126a6.092,6.092,0,0,0,5.431-4.388,5.072,5.072,0,0,0-2.208-6.105,59.884,59.884,0,0,0-7.022-3.51,67.733,67.733,0,0,1-7.125-3.335,9.014,9.014,0,0,1-.051-15.576c6.518-4.01,13.443-3.774,20.279-.626a7.488,7.488,0,0,1,2.631,2.4,3.463,3.463,0,0,1-.377,4.709,3.853,3.853,0,0,1-5.082-.79,15.074,15.074,0,0,1-1.905-3.566c-1.633-4.291-8.559-3.872-10.658-1.461-1.614,1.853-1.887,4.609-.058,6.342a22.6,22.6,0,0,0,5.551,3.732c3.095,1.52,6.4,2.6,9.521,4.076,3.583,1.689,5.98,4.4,5.824,8.61-.161,4.362-2.22,7.77-6.31,9.351-3.033,1.172-6.34,1.633-9.525,2.411" transform="translate(-95.166 -7.447)" fill="#fff"/>
    <path id="Path_74853" data-name="Path 74853" d="M162.765,50.912H148.131c0-.31-.079-.675.012-.724,2.585-1.386,2.2-3.814,2.2-6.121-.006-10.166.031-20.332-.026-30.5-.014-2.593.941-5.572-2.706-7.09l.489-.443h15.482c-3.976,2.3-3.137,5.562-3.153,8.516-.053,9.789-.035,19.578-.009,29.368.006,2.44-.441,5.094,2.761,6.4l-.416.594" transform="translate(-56.342 -2.304)" fill="#fff"/>
    <path id="Path_74854" data-name="Path 74854" d="M752.848,50.321H739.085c-.054-.312-.142-.559-.1-.587,2.557-1.571,2.246-4.088,2.239-6.55q-.042-15.025-.006-30.05c0-1.5-.159-2.815-1.63-3.7-.263-.16-.21-1.556-.044-1.611,3.592-1.206,7.22-2.3,11.147-3.515V6.864c0,11.071-.084,22.143.05,33.212.041,3.406-1.395,7.275,2.544,9.868l-.441.377" transform="translate(-282.062 -1.644)" fill="#fff"/>
    <path id="Path_74855" data-name="Path 74855" d="M322.59,48.342a9.727,9.727,0,0,1-.455,1.415c-1.554,2.6-5.48,3.967-9.236,3.223-3.546-.7-5.361-2.415-5.8-5.935a63.567,63.567,0,0,1-.32-7.429c-.039-6.764-.014-13.527-.014-20.377a4.248,4.248,0,0,1-1.483-.167,13.467,13.467,0,0,1-1.682-1.35c.574-.413,1.122-1.135,1.728-1.189,4.011-.354,6.594-2.55,8.385-5.994a8.085,8.085,0,0,1,1.731-1.723A9.441,9.441,0,0,1,316.2,11.1c.116,1.706.036,3.425.036,5.384a27.555,27.555,0,0,1,3.984.053c.686.106,1.745.662,1.843,1.17.281,1.444-.944,1.391-1.943,1.395-1.193,0-2.387,0-3.71,0-.069.752-.166,1.33-.167,1.909q-.015,11.859.006,23.719a12.6,12.6,0,0,0,.271,2.453c.377,1.864,1.526,2.461,3.326,1.908.746-.229,1.506-.414,2.742-.751" transform="translate(-115.883 -3.365)" fill="#fff"/>
    <path id="Path_74856" data-name="Path 74856" d="M391.308,48.357c-1.361,3.744-5.1,5.412-9.414,4.673-3.686-.632-5.608-2.447-6.043-6.22a74.483,74.483,0,0,1-.281-8.112c-.035-6.461-.012-12.923-.012-19.462a4.882,4.882,0,0,1-1.719-.179,8.061,8.061,0,0,1-1.447-1.349c.5-.408.988-1.138,1.515-1.172,4.123-.262,6.767-2.488,8.6-6.01.358-.686,1.148-1.146,1.739-1.71a9.714,9.714,0,0,1,.741,2.3c.113,1.7.035,3.422.035,5.371a39.4,39.4,0,0,1,4.452.056c.526.062.977.756,1.462,1.162-.456.463-.867,1.258-1.374,1.325a34.13,34.13,0,0,1-4.367.064c-.069.774-.164,1.353-.165,1.933q-.014,11.86.006,23.72a12.6,12.6,0,0,0,.276,2.452c.38,1.874,1.545,2.442,3.336,1.891.744-.229,1.5-.416,2.656-.733" transform="translate(-142.14 -3.365)" fill="#fff"/>
    <path id="Path_74857" data-name="Path 74857" d="M487.482,18.937V30.705c0,4.593-.014,9.187,0,13.78.018,4.413.7,4.934,4.995,3.967a3.572,3.572,0,0,1,1.075.1c-.68,2.474-2.84,4.034-5.938,4.381-6.191.693-9.506-2.213-9.583-8.625-.09-7.529-.023-15.06-.023-22.59V19.105a4.282,4.282,0,0,1-1.606-.192,10.058,10.058,0,0,1-1.559-1.467c.542-.37,1.063-1.023,1.629-1.065,4.117-.309,6.732-2.576,8.543-6.1a9.023,9.023,0,0,1,1.759-1.851l.653.437v7.476c1.672,0,3.156-.089,4.617.051.479.046.9.686,1.349,1.055-.419.5-.788,1.358-1.267,1.423a36.12,36.12,0,0,1-4.65.069" transform="translate(-181.246 -3.216)" fill="#fff"/>
    <path id="Path_74858" data-name="Path 74858" d="M341.655,56.5c3.093-2.167,2.337-5.283,2.361-8.122.048-5.577.017-11.154.012-16.731,0-3.872-.008-3.872-2.812-6.681l12.129-4.106c.083,1.1.2,1.953.205,2.81q.022,12.775.009,25.549c0,4.255,0,4.255,2.5,7.282Z" transform="translate(-130.24 -7.964)" fill="#fff"/>
    <path id="Path_74859" data-name="Path 74859" d="M527.064,56.548H512.972c3.087-2.2,2.342-5.314,2.365-8.153.046-5.577.021-11.154.01-16.731,0-2.4.262-4.921-2.685-6.2.03-.189.06-.378.09-.566l11.908-4.033c.086,1.086.21,1.941.211,2.8.015,8.592,0,17.183.014,25.775,0,2.486-.636,5.208,2.608,6.628l-.429.48" transform="translate(-195.68 -7.965)" fill="#fff"/>
    <path id="Path_74860" data-name="Path 74860" d="M520.042,10.211c-3.381-.047-6.054-2.293-6.052-5.084,0-2.923,2.737-5.174,6.228-5.126,3.294.045,6.085,2.366,6.116,5.086.033,2.782-2.9,5.172-6.292,5.125" transform="translate(-196.187 0)" fill="#fff"/>
    <path id="Path_74861" data-name="Path 74861" d="M348.808,10.212c-3.378-.041-6.059-2.285-6.062-5.075,0-2.921,2.732-5.18,6.22-5.136,3.294.041,6.087,2.356,6.126,5.077.04,2.782-2.89,5.176-6.283,5.134" transform="translate(-130.824 0)" fill="#fff"/>
    <path id="Path_74862" data-name="Path 74862" d="M487.984,108.444c.241,1.893.462,3.644.752,5.92,2.847-4.966,6.907-7.012,12.132-6.814,5.138.2,9.2,2.075,11.187,7.531,3.482-6.4,8.808-8.353,15.346-7.273,5.7.942,8.9,4.4,9.443,10.178.355,3.74.324,7.518.435,11.28.044,1.506-.148,3.035.04,4.519.427,3.372-1.707,7.327,2.73,9.817l-.553.347h-13.9c-.043-.279-.126-.526-.078-.555,2.67-1.627,2.343-4.272,2.3-6.8-.109-5.946-.043-11.905-.448-17.832-.288-4.209-2.552-6.313-6.108-6.644-3.384-.315-6.341,1.793-7.461,5.6a20.852,20.852,0,0,0-.8,5.319c-.113,4.294-.064,8.593-.027,12.89.023,2.772-.725,5.808,2.346,7.962H501.275c0-.176-.1-.655.015-.713,2.345-1.187,2.184-3.307,2.164-5.444-.049-5.5,0-11.006-.061-16.509a16.371,16.371,0,0,0-.542-4.01c-.741-2.765-2.43-4.669-5.421-5.032a6.493,6.493,0,0,0-6.876,3.339,11.646,11.646,0,0,0-1.588,5.089q-.3,9.488-.04,18.989c.04,1.4,1.208,2.777,1.927,4.318h-14.6c4.086-2.57,2.986-6.1,3.058-9.26.109-4.822.029-9.649.028-14.473,0-4.513,0-4.513-2.687-7.629l11.33-4.1" transform="translate(-181.783 -41.043)" fill="#fff"/>
    <path id="Path_74863" data-name="Path 74863" d="M624.381,144.021H610.518c-.042-.3-.156-.675-.091-.709,2.607-1.363,2.227-3.8,2.222-6.1-.01-5.353.019-10.705-.049-16.057a15.953,15.953,0,0,0-.557-4.008c-.764-2.761-2.48-4.638-5.471-4.976a6.385,6.385,0,0,0-6.714,3.221,12.762,12.762,0,0,0-1.694,5.51c-.223,6.173-.224,12.362-.042,18.537.041,1.413,1.159,2.794,1.875,4.4H586.177c3.055-2.159,2.34-5.266,2.359-8.118.037-5.578.012-11.157.01-16.736,0-2.355.143-4.772-2.815-5.92l.185-.511,11.241-4.107c.244,1.823.477,3.569.781,5.837,2.8-4.74,6.776-6.92,11.978-6.733s9.38,2.015,11.35,7.567c3.506-6.471,8.85-8.389,15.407-7.287,5.68.955,8.853,4.417,9.381,10.229.354,3.892.344,7.82.427,11.733.064,3.014.052,6.031.007,9.046-.025,1.666.14,3.163,1.854,4.022.24.121.315.568.6,1.125h-14.19c.017-.315-.069-.779.061-.85,2.358-1.285,2.256-3.5,2.21-5.7-.129-6.247-.057-12.507-.463-18.737-.271-4.166-2.6-6.286-6.165-6.584-3.3-.276-6.2,1.817-7.382,5.442a12.955,12.955,0,0,0-.761,3.738c-.085,6.1-.177,12.215.033,18.313.048,1.4,1.279,2.768,2.1,4.412" transform="translate(-223.57 -41.046)" fill="#fff"/>
    <path id="Path_74864" data-name="Path 74864" d="M380.147,128.629a18.428,18.428,0,0,1-1.267,2.446c-6.052,8.422-18.737,10.612-28.472,4.946-8-4.654-12.433-14.374-11.063-24.248a22.363,22.363,0,0,1,16.784-18.912c6.523-1.571,12.9-.948,18.669,2.761,3.166,2.037,5.382,4.843,5.23,8.909-.075,2-.952,3.472-3.039,3.93-2.105.462-4.055.09-5.008-1.99a53.173,53.173,0,0,1-2.057-6.181c-2.127-6.75-9.2-8.746-14.666-4.111-3.218,2.727-4.707,6.412-5.314,10.431-.982,6.5-.367,12.811,3.463,18.4,5.441,7.939,15.419,9.82,23.5,4.574.874-.568,1.816-1.029,2.726-1.54l.518.586" transform="translate(-129.432 -35.137)" fill="#fff"/>
    <path id="Path_74865" data-name="Path 74865" d="M411.674,126.327c.029-10.972,7.61-18.781,18.223-18.772s18.221,7.865,18.208,18.792c-.013,11.056-7.636,18.8-18.463,18.744-10.485-.049-18-7.895-17.969-18.764m27.732,4.788c-.852-3.92-1.409-8.206-2.783-12.211a20.935,20.935,0,0,0-4.674-7.54c-3.089-3.184-7.828-2.012-9.72,2.009a12.311,12.311,0,0,0-.948,2.993,32.33,32.33,0,0,0,2.291,18.541,19.6,19.6,0,0,0,4.159,6.32c3.351,3.29,8.23,2.121,9.887-2.275.884-2.346,1.148-4.926,1.788-7.838" transform="translate(-157.133 -41.053)" fill="#fff"/>
    <path id="Path_74866" data-name="Path 74866" d="M865.173,124.147c.43,5.928,2.254,10.788,7.453,13.676,5.1,2.833,10.136,1.519,15.084-.889l.521.576a10.991,10.991,0,0,1-1.282,2.133c-4.967,5.172-11.089,6.433-17.81,4.729-6.688-1.695-10.929-6.155-12.673-12.787-2.6-9.869,1.906-19.546,10.452-22.864,9.035-3.508,18.449.289,21.258,8.571.1.284.219.561.295.851,1.386,5.332.872,6-4.58,6H865.173m-.825-2.652c5.175,0,9.374.04,13.572-.02,1.594-.022,2.68-.973,2.4-2.589a20.163,20.163,0,0,0-1.764-6.394c-2.469-4.4-7.788-4.613-10.44-.328-1.64,2.651-2.4,5.845-3.769,9.331" transform="translate(-326.628 -41)" fill="#fff"/>
    <path id="Path_74867" data-name="Path 74867" d="M804.432,124.148c.439,5.947,2.268,10.8,7.473,13.685,5.1,2.826,10.134,1.5,15.082-.9l.513.591a11.319,11.319,0,0,1-1.3,2.136c-4.973,5.164-11.094,6.419-17.815,4.708-6.688-1.7-10.922-6.168-12.658-12.8-2.585-9.876,1.926-19.545,10.475-22.852,9.042-3.5,18.448.309,21.247,8.6.1.284.217.562.291.851,1.376,5.33.872,5.985-4.605,5.985h-18.7m-.027-2.659c4.354,0,8.624.046,12.893-.025,1.478-.025,2.56-.964,2.278-2.468-.435-2.314-.783-4.822-1.95-6.784-2.452-4.126-7.4-4.078-10.271-.189-2.031,2.748-2.724,5.931-2.95,9.466" transform="translate(-303.445 -41)" fill="#fff"/>
    <path id="Path_74868" data-name="Path 74868" d="M779.3,136.142a9.7,9.7,0,0,1-.452,1.411c-1.552,2.6-5.478,3.968-9.235,3.225-3.545-.7-5.363-2.415-5.8-5.934a63.574,63.574,0,0,1-.32-7.429c-.039-6.764-.014-13.527-.014-20.378A4.255,4.255,0,0,1,762,106.87a13.472,13.472,0,0,1-1.684-1.349c.574-.414,1.12-1.137,1.726-1.19,4.01-.355,6.594-2.549,8.385-5.993a8.116,8.116,0,0,1,1.731-1.725,9.44,9.44,0,0,1,.756,2.284c.116,1.706.036,3.425.036,5.385a27.445,27.445,0,0,1,3.983.053c.686.106,1.746.66,1.845,1.167.283,1.443-.941,1.394-1.941,1.4-1.194,0-2.388,0-3.712,0-.068.751-.166,1.329-.167,1.907q-.015,11.86.006,23.72a12.589,12.589,0,0,0,.271,2.452c.377,1.864,1.523,2.464,3.325,1.911.746-.229,1.507-.414,2.741-.749" transform="translate(-290.208 -36.877)" fill="#fff"/>
    <path id="Path_74869" data-name="Path 74869" d="M729.086,106.865c-.689-.055-1.222.053-1.558-.157a11.922,11.922,0,0,1-1.609-1.423c.526-.386,1.031-1.073,1.582-1.112,4.12-.286,6.748-2.537,8.568-6.064a9.74,9.74,0,0,1,1.752-1.909l.653.415v7.511a34.357,34.357,0,0,1,4.371.058c.586.079,1.085.8,1.624,1.225-.552.444-1.059,1.181-1.663,1.271a30.067,30.067,0,0,1-4.25.061v5.152q0,10.053.008,20.105a12.526,12.526,0,0,0,.171,2.468c.466,2.285,1.507,2.863,3.727,2.194.667-.2,1.347-.356,2.266-.6-.338,2.368-1.841,3.255-3.4,3.919a10.377,10.377,0,0,1-8.327-.066,5.716,5.716,0,0,1-3.479-4.417,23.883,23.883,0,0,1-.42-4.483c-.041-7.229-.018-14.458-.018-21.686v-2.467" transform="translate(-277.078 -36.719)" fill="#fff"/>
    <path id="Path_74870" data-name="Path 74870" d="M695.129,112.677l11.822-3.986c.091,1.038.231,1.888.232,2.738.017,8.139-.045,16.279.039,24.418.03,2.915-1.089,6.221,2.177,8.526H695.311c3.271-2.416,2.282-5.786,2.329-8.807.086-5.5.028-11,.022-16.505,0-2.275.091-4.6-2.641-5.753q.055-.316.109-.632" transform="translate(-265.285 -41.487)" fill="#fff"/>
    <path id="Path_74871" data-name="Path 74871" d="M110.416,92.014v16.411c2.373-3.724,5.1-6.074,8.987-6.591,7.661-1.019,14.342,1.711,15,11.022.409,5.777.255,11.592.393,17.389.064,2.671-.844,5.662,2.241,7.717H122.886c2.957-2.081,2.381-5.021,2.353-7.732-.058-5.724-.067-11.454-.368-17.166-.151-2.872-1.3-5.457-4.4-6.487-2.862-.951-5.673-.44-7.333,1.951a14.5,14.5,0,0,0-2.573,7.008c-.362,5.933-.215,11.9-.048,17.854.032,1.146,1.088,2.265,1.677,3.393.183.351.386.691.727,1.3H98.8c-.031-.308-.137-.68-.062-.722,2.538-1.4,2.226-3.792,2.222-6.117q-.031-15.037,0-30.074c0-1.638-.044-3.156-1.724-4.117a2.074,2.074,0,0,1,.156-1.6c3.531-1.18,7.1-2.24,11.024-3.438" transform="translate(-37.677 -35.121)" fill="#fff"/>
    <path id="Path_74872" data-name="Path 74872" d="M33.495,102.582a9.989,9.989,0,0,1-1.424-2c-1.718-4.4-2.565-5.048-7.328-5.09-3.833-.035-7.668-.007-11.686-.007v17.256c2.87,0,5.7.043,8.53-.011,3.456-.066,3.744-3.516,5.141-5.775l.613.448v13.514l-.584.269a6.454,6.454,0,0,1-1.01-1.74,4.076,4.076,0,0,0-3.8-3.587c-2.9-.281-5.819-.363-9.079-.55,0,2.619,0,4.919,0,7.221,0,3.617.035,7.235,0,10.852-.017,1.784.711,2.609,2.564,2.567,3.164-.072,6.33.011,9.5-.024,4.4-.049,5.941-1.18,7.592-5.343.407-1.025.966-1.99,1.456-2.982l.76.173a7.34,7.34,0,0,1,.286,1.783c-.207,2.4-.388,4.808-.829,7.166-.129.686-1.086,1.735-1.673,1.741-10.473.1-20.949.065-31.424.048a1.866,1.866,0,0,1-.58-.2c-.045-.192-.145-.437-.1-.463,2.788-1.8,2.215-4.624,2.218-7.258.012-9.27.093-18.541-.043-27.808C2.546,99.526,3.981,95.812,0,93.4l.428-.383c.7-.054,1.4-.154,2.108-.156,9.721-.035,19.443-.043,29.164-.1,1.128-.007,1.956.156,2.045,1.46.179,2.615.342,5.231.512,7.847l-.762.513" transform="translate(0 -35.407)" fill="#fff"/>
    <path id="Path_74873" data-name="Path 74873" d="M272.97,145.523c-4.007-.6-7.8-1.071-11.131-3.267-2.027-1.334-3.519-3.086-3.637-5.654a3.088,3.088,0,0,1,2.236-3.484,3.133,3.133,0,0,1,3.979,1.7c.87,1.656,1.43,3.474,2.269,5.149,1.574,3.144,4.407,3.576,7.514,3.249a6.1,6.1,0,0,0,5.383-4.454,4.985,4.985,0,0,0-2.123-5.937,63.546,63.546,0,0,0-7.211-3.628,71.059,71.059,0,0,1-6.924-3.239c-6.085-3.761-6.215-11.965-.11-15.688,6.452-3.934,13.3-3.735,20.083-.663a7.464,7.464,0,0,1,2.528,2.181c1.411,1.763,1.246,3.987-.21,5.043a3.9,3.9,0,0,1-5.333-1.255,15.125,15.125,0,0,1-1.527-3.011c-1.612-4.395-8.248-3.966-10.454-1.86a4.569,4.569,0,0,0-.271,6.664,22.46,22.46,0,0,0,5.57,3.7c3.1,1.515,6.406,2.6,9.52,4.08,3.486,1.662,5.85,4.321,5.754,8.431-.1,4.369-2.11,7.82-6.177,9.438-3.086,1.228-6.474,1.7-9.728,2.5" transform="translate(-98.552 -40.959)" fill="#fff"/>
    <path id="Path_74874" data-name="Path 74874" d="M231.324,137.544A31.57,31.57,0,0,1,227.7,141.5c-7.522,5.889-19.2,4.292-25.046-3.319-5.032-6.55-5.368-16.477-.779-23.055,4.609-6.608,13.3-9.362,21.516-6.691,3.692,1.2,6.609,3.343,7.186,7.538.248,1.8-.027,3.56-2.128,4.187a3.712,3.712,0,0,1-4.727-2.437,34.745,34.745,0,0,1-1.112-3.654c-.646-2.242-1.485-4.335-4.165-4.767a6.637,6.637,0,0,0-7.086,2.895c-3.5,5.245-3.717,10.974-2.208,16.879A12.719,12.719,0,0,0,219.2,138.93a13.113,13.113,0,0,0,9.192-1.248c.7-.36,1.446-.624,2.171-.932l.759.793" transform="translate(-75.821 -41.004)" fill="#fff"/>
    <path id="Path_74875" data-name="Path 74875" d="M81.239,136.076c-1.29,3.323-3.642,4.322-6.317,4.648-6.187.754-9.486-2.2-9.56-8.624-.087-7.529-.022-15.06-.023-22.59v-2.6a5.007,5.007,0,0,1-1.849-.208,6.349,6.349,0,0,1-1.313-1.468c.472-.362.93-1.016,1.42-1.041,4.334-.223,7.015-2.625,8.866-6.325.328-.657,1.126-1.08,1.707-1.61l.6.433v7.458c1.677,0,3.163-.09,4.627.052.473.045.887.7,1.328,1.074-.425.491-.8,1.339-1.287,1.4a33.7,33.7,0,0,1-4.436.068c-.074.709-.184,1.279-.185,1.849q-.017,11.973.007,23.946a11.737,11.737,0,0,0,.317,2.445c.387,1.771,1.518,2.273,3.2,1.785.805-.233,1.63-.4,2.893-.7" transform="translate(-23.733 -36.742)" fill="#fff"/>
    <path id="Path_74876" data-name="Path 74876" d="M167.987,143.914c3.213-1.608,2.68-4.457,2.69-7.107.019-5.652.007-11.3,0-16.957,0-4.133,0-4.133-2.772-7.1l12.124-4.075c.07,1.131.169,1.994.171,2.858.012,8.29-.028,16.581.028,24.871.019,2.729-.939,5.813,2.231,7.931H168.4l-.412-.424" transform="translate(-64.09 -41.482)" fill="#fff"/>
    <path id="Path_74877" data-name="Path 74877" d="M702.482,98.017c-3.325.048-6.115-2.176-6.2-4.94-.088-2.944,2.573-5.257,6.071-5.277,3.394-.019,6.294,2.367,6.27,5.159-.023,2.691-2.84,5.011-6.143,5.058" transform="translate(-265.766 -33.513)" fill="#fff"/>
    <path id="Path_74878" data-name="Path 74878" d="M175.555,98.016c-3.331.033-6.106-2.2-6.176-4.963-.074-2.938,2.6-5.243,6.1-5.253,3.4-.009,6.289,2.392,6.247,5.184-.041,2.686-2.876,5-6.168,5.032" transform="translate(-64.65 -33.513)" fill="#fff"/>
  </g>
</svg>
