<svg xmlns="http://www.w3.org/2000/svg" xmlns:xlink="http://www.w3.org/1999/xlink" width="94" height="94" viewBox="0 0 94 94">
  <defs>
    <clipPath id="clip-path">
      <rect id="Rectangle_14619" data-name="Rectangle 14619" width="55.835" height="59.579" fill="#191d42"/>
    </clipPath>
  </defs>
  <g id="Group_51900" data-name="Group 51900" transform="translate(-138 -2656)">
    <rect id="Rectangle_14625" data-name="Rectangle 14625" width="90" height="73" transform="translate(142 2677)" fill="#622f88"/>
    <rect id="Rectangle_14622" data-name="Rectangle 14622" width="90" height="90" transform="translate(138 2656)" fill="#fff"/>
    <g id="Group_50363" data-name="Group 50363" transform="translate(155 2671)">
      <g id="Group_50362" data-name="Group 50362" clip-path="url(#clip-path)">
        <path id="Path_74727" data-name="Path 74727" d="M12.909,48.113c-.069.064-.149.145-.236.217a1.283,1.283,0,0,0-.57,1.449A2.34,2.34,0,0,1,11.316,52q-3.356,3.341-6.7,6.694a2.656,2.656,0,0,1-3.837.118,2.674,2.674,0,0,1,.11-3.874q3.329-3.333,6.661-6.663a2.567,2.567,0,0,1,2.559-.775.694.694,0,0,0,.772-.218,5.015,5.015,0,0,1,.64-.5c-.681-1.01-1.328-1.845-1.845-2.754a15.573,15.573,0,0,1,3.652-19.752.952.952,0,0,0,.392-.828c-.01-7.038.016-14.075-.027-21.113A2.173,2.173,0,0,1,16.023,0c8.32.039,16.64.025,24.96.01a2.59,2.59,0,0,1,1.97.819q5.982,6.016,12,12a2.81,2.81,0,0,1,.882,2.146q-.022,18.967-.01,37.934a2.061,2.061,0,0,1-2.364,2.345H16.022a2.026,2.026,0,0,1-2.311-2.288c0-1.118-.036-2.238.013-3.354a1.3,1.3,0,0,0-.815-1.5M15.731,53.2H53.78c.009-.189.022-.35.022-.511q0-18.82.007-37.639a1.1,1.1,0,0,0-.355-.862q-5.924-5.9-11.824-11.824A1.108,1.108,0,0,0,40.767,2Q28.533,2.018,16.3,2c-.476,0-.606.135-.6.605q.022,9.718.012,19.436c0,.17.016.34.027.538a15.64,15.64,0,0,1,20.7,22.1,14.988,14.988,0,0,1-7.11,6.024,15.673,15.673,0,0,1-13.595-.654ZM36.837,36.33a13.592,13.592,0,1,0-13.57,13.607A13.594,13.594,0,0,0,36.837,36.33M2.751,57.563a2.61,2.61,0,0,0,.46-.318q3.322-3.3,6.629-6.621c.081-.081.212-.174.212-.261,0-.243.025-.562-.112-.706s-.459-.148-.7-.142c-.117,0-.238.161-.341.264Q5.638,53.036,2.381,56.3a1.62,1.62,0,0,0-.287.336c-.227.411.07.915.658.928" transform="translate(0 0)" fill="#191d42"/>
        <path id="Path_74728" data-name="Path 74728" d="M216.484,147.04q-6.928,0-13.855,0c-.8,0-1.28-.5-1.148-1.172a.944.944,0,0,1,.919-.809c.278-.017.559-.009.838-.009H230.16c.181,0,.363-.006.542.011a.956.956,0,0,1,.893.944.967.967,0,0,1-.862,1.025,4.013,4.013,0,0,1-.492.012H216.484" transform="translate(-181.582 -130.735)" fill="#191d42"/>
        <path id="Path_74729" data-name="Path 74729" d="M212.243,63.757q-4.83,0-9.661,0a1,1,0,0,1-1.106-1.13.932.932,0,0,1,.831-.847A4.528,4.528,0,0,1,203,61.75q9.316,0,18.632,0a4.454,4.454,0,0,1,.59.025.981.981,0,0,1,.876,1.015,1,1,0,0,1-.943.963c-.147.012-.3,0-.443,0h-9.464" transform="translate(-181.586 -55.656)" fill="#191d42"/>
        <path id="Path_74730" data-name="Path 74730" d="M368.972,230.228q-3.03,0-6.06,0a1,1,0,1,1-.126-1.986c.328-.014.657,0,.985,0h10.938c.148,0,.3-.006.443,0a.976.976,0,0,1,.962.982.937.937,0,0,1-.934,1c-.886.026-1.773.011-2.66.012q-1.774,0-3.547,0" transform="translate(-326.101 -205.713)" fill="#191d42"/>
        <path id="Path_74731" data-name="Path 74731" d="M385.545,479.942c-1.742,0-3.484.01-5.225,0a.967.967,0,0,1-.884-1.5,1.231,1.231,0,0,1,.848-.468c3.516-.032,7.033-.026,10.549-.016a.95.95,0,0,1,1.016,1.022.966.966,0,0,1-1.029.964c-1.758.009-3.516,0-5.275,0" transform="translate(-341.837 -430.788)" fill="#191d42"/>
        <path id="Path_74732" data-name="Path 74732" d="M408.769,311.374c1.3,0,2.6,0,3.9,0,.74,0,1.184.4,1.176,1.027-.008.609-.444.991-1.164.993q-3.921.007-7.843,0c-.737,0-1.19-.407-1.178-1.031s.445-.986,1.166-.989c1.315-.005,2.631,0,3.946,0" transform="translate(-363.829 -280.65)" fill="#191d42"/>
        <path id="Path_74733" data-name="Path 74733" d="M413.87,396.576c-1.215,0-2.431,0-3.646,0-.722,0-1.155-.372-1.168-.981-.014-.632.427-1.034,1.168-1.036q3.671-.007,7.342,0a1.012,1.012,0,0,1,1.144,1.01c0,.616-.431,1-1.143,1.005-1.232.006-2.464,0-3.7,0" transform="translate(-368.695 -355.626)" fill="#191d42"/>
        <path id="Path_74734" data-name="Path 74734" d="M165.62,309.229c1.32-1.552,2.587-3.039,3.852-4.528q2.378-2.8,4.754-5.6c.053-.063.106-.126.163-.185a1,1,0,0,1,1.449-.138,1.016,1.016,0,0,1,.069,1.456c-.895,1.072-1.8,2.131-2.709,3.195l-6.7,7.884a1.128,1.128,0,0,1-2.009-.123l-3.957-6.182c-.071-.111-.148-.218-.208-.335a1,1,0,0,1,.337-1.341.97.97,0,0,1,1.352.272c.447.649.859,1.321,1.284,1.985.761,1.187,1.52,2.374,2.326,3.634" transform="translate(-144.388 -269.078)" fill="#191d42"/>
      </g>
    </g>
  </g>
</svg>
