<svg xmlns="http://www.w3.org/2000/svg" xmlns:xlink="http://www.w3.org/1999/xlink" width="95" height="94" viewBox="0 0 95 94">
  <defs>
    <clipPath id="clip-path">
      <rect id="Rectangle_14620" data-name="Rectangle 14620" width="68.884" height="64.88" fill="#191d42"/>
    </clipPath>
  </defs>
  <g id="Group_51901" data-name="Group 51901" transform="translate(-710 -2656)">
    <rect id="Rectangle_14626" data-name="Rectangle 14626" width="90" height="73" transform="translate(715 2677)" fill="#622f88"/>
    <rect id="Rectangle_14623" data-name="Rectangle 14623" width="90" height="90" transform="translate(710 2656)" fill="#fff"/>
    <g id="Group_50365" data-name="Group 50365" transform="translate(721 2672)">
      <g id="Group_50364" data-name="Group 50364" clip-path="url(#clip-path)">
        <path id="Path_74735" data-name="Path 74735" d="M41.209,5.346c1.362,0,2.551,0,3.74,0,1.411.007,1.6.193,1.6,1.642,0,5.339-.013,10.678.03,16.016a1.644,1.644,0,0,0,.636,1.211c7.307,4.343,9.445,12.583,5.127,19.915a3.247,3.247,0,0,1-.452.606,17.419,17.419,0,0,1,1.607,1.2,15.581,15.581,0,0,1,1.257,1.491c.405-.366.635-.543.829-.753a1.09,1.09,0,0,1,1.814-.009q5.493,5.516,11.012,11.006c.7.691.6,1.257-.061,1.9-1.6,1.567-3.2,3.142-4.749,4.755-.747.775-1.329.708-2.061-.033Q56.18,58.879,50.763,53.524c-.762-.753-.767-1.378.03-2.059a4.753,4.753,0,0,0,.438-.488L48.51,48.24a2.378,2.378,0,0,0-1.985,3.03,21.425,21.425,0,0,1,.025,2.685c.015.943-.445,1.374-1.374,1.34-.187-.007-.374,0-.56,0H7.2c-1.713,0-1.86-.148-1.862-1.84,0-1.112,0-2.225,0-3.489-1.357,0-2.614-.034-3.868.01C.409,50.013,0,49.548,0,48.507Q.019,24.987,0,1.466C0,.417.448,0,1.488,0Q20.644.021,39.8,0c.979,0,1.452.368,1.419,1.391-.04,1.262-.01,2.526-.01,3.954m3.345,44.731A14.129,14.129,0,0,1,26.614,37.752,13.557,13.557,0,0,1,30.45,26.907c3.9-4.008,8.682-5.079,14.054-3.836V7.363H7.344V53.256h37.21Zm-4.037-1.45A12.063,12.063,0,1,0,28.473,36.591,12.065,12.065,0,0,0,40.516,48.627m-35.188-.66V46.578q0-19.707,0-39.414c0-1.736.093-1.828,1.853-1.828H39.222V2.041H2.042V47.967Zm50.028,7.2,7.135,7.141L66.217,58.6l-7.062-7.055-3.8,3.624m1.265-6.489-3.87,3.864.9,1.116,4.017-3.994-1.051-.985m-6.478-1.954,2.568,2.839.7-.657-2.573-2.838-.69.656" transform="translate(-0.001 0)" fill="#191d42"/>
        <path id="Path_74736" data-name="Path 74736" d="M61.7,72.575q6.945,0,13.889,0a2.169,2.169,0,0,1,.99.063c.308.178.677.56.684.861a1.237,1.237,0,0,1-.647.879,2.865,2.865,0,0,1-1.209.109q-13.664.007-27.33,0c-.78,0-1.892.245-1.915-.946-.023-1.232,1.1-.955,1.873-.957,4.555-.015,9.11-.007,13.665-.007" transform="translate(-35.793 -56.253)" fill="#191d42"/>
        <path id="Path_74737" data-name="Path 74737" d="M57.328,95.611q4.922,0,9.843,0c.7,0,1.448,0,1.445.953s-.756.971-1.453.971q-9.843,0-19.687,0c-.732,0-1.438-.138-1.4-1.037.036-.83.724-.894,1.408-.892,3.281.012,6.562.005,9.843.005" transform="translate(-35.724 -74.127)" fill="#191d42"/>
        <path id="Path_74738" data-name="Path 74738" d="M55.633,210.4c2.645,0,5.29.005,7.935,0,.749,0,1.563.021,1.534.994-.028.947-.85.965-1.592.964q-7.935-.007-15.869,0c-.186,0-.429.072-.548-.018-.4-.3-.756-.663-1.128-1,.392-.31.777-.878,1.177-.889,2.829-.078,5.661-.042,8.492-.042" transform="translate(-35.638 -163.129)" fill="#191d42"/>
        <path id="Path_74739" data-name="Path 74739" d="M54.695,118.579c2.39,0,4.78.01,7.171-.006.669,0,1.265.141,1.3.892.04.825-.585,1.039-1.292,1.039q-7.283,0-14.565,0c-.668,0-1.246-.226-1.249-.975s.55-.96,1.239-.956c2.465.014,4.93.005,7.395.005" transform="translate(-35.713 -91.935)" fill="#191d42"/>
        <path id="Path_74740" data-name="Path 74740" d="M86.669,50.781c2.313,0,4.626,0,6.939,0,.681,0,1.351.066,1.372.927.022.936-.7,1.017-1.41,1.018q-6.939,0-13.878,0c-.684,0-1.365-.113-1.38-.945-.017-.906.681-1.009,1.419-1,2.313.014,4.626.005,6.939.005" transform="translate(-60.718 -39.368)" fill="#191d42"/>
        <path id="Path_74741" data-name="Path 74741" d="M53.776,187.441c2.163,0,4.325.01,6.488-.006.728-.005,1.33.206,1.307,1.009-.021.727-.617.943-1.284.943q-6.488,0-12.975,0c-.671,0-1.252-.242-1.252-.974,0-.814.629-.981,1.341-.976,2.125.014,4.251.005,6.376.005" transform="translate(-35.712 -145.327)" fill="#191d42"/>
        <path id="Path_74742" data-name="Path 74742" d="M53.578,141.5c2.016,0,4.031.006,6.047,0,.694,0,1.345.1,1.352.954s-.655.975-1.342.975q-6.1,0-12.206,0c-.7,0-1.357-.145-1.359-.968s.64-.97,1.349-.964c2.053.016,4.106.006,6.159.005" transform="translate(-35.72 -109.711)" fill="#191d42"/>
        <path id="Path_74743" data-name="Path 74743" d="M53.18,166.413c-1.9,0-3.808-.005-5.712,0-.694,0-1.372-.137-1.394-.942-.024-.894.683-1.006,1.423-1q5.712.017,11.424,0c.684,0,1.359.071,1.384.919.027.927-.695,1.02-1.412,1.021q-2.856,0-5.712,0" transform="translate(-35.723 -127.522)" fill="#191d42"/>
        <path id="Path_74744" data-name="Path 74744" d="M140.888,137.169c1.745.265,1.747.265,1.748-1.261,0-1.828,0-3.657,0-5.485,0-.746-.109-1.681.941-1.707,1.068-.027.981.9.981,1.653,0,2.265,0,4.531,0,6.866h1.781c0-1.368.008-2.7,0-4.026-.006-.725.069-1.436,1-1.417.844.018.948.7.949,1.376,0,1.334,0,2.668,0,4.068h1.665c.028-.391.079-.781.08-1.171.008-2.425,0-4.851.005-7.276,0-.725-.036-1.545,1-1.519.95.024.92.791.92,1.484,0,2.793,0,5.586,0,8.465h1.726c.018-.378.052-.771.053-1.163q.006-5.149,0-10.3c0-.728.068-1.452.975-1.448s.977.749.976,1.462q0,5.149,0,10.3c0,.581-.114,1.168.62,1.509.209.1.335.667.268.97-.054.247-.426.475-.706.606a1.934,1.934,0,0,1-.774.052c-5.187,0-10.375.02-15.561-.025a2.018,2.018,0,0,1-1.471-.638c-.383-.556.115-.979.669-1.284.168-.092.206-.52.21-.8q.031-2.07.005-4.141c-.008-.67.153-1.252.91-1.29.839-.042,1.035.585,1.038,1.285.006,1.6,0,3.2,0,4.853" transform="translate(-106.936 -96.382)" fill="#191d42"/>
      </g>
    </g>
  </g>
</svg>
