<svg xmlns="http://www.w3.org/2000/svg" xmlns:xlink="http://www.w3.org/1999/xlink" width="42" height="42" viewBox="0 0 42 42">
  <defs>
    <clipPath id="clip-path">
      <rect id="Rectangle_14635" data-name="Rectangle 14635" width="27.844" height="28.487" fill="#232a35"/>
    </clipPath>
  </defs>
  <g id="Group_51905" data-name="Group 51905" transform="translate(-600 -3190.886)">
    <rect id="Rectangle_14634" data-name="Rectangle 14634" width="42" height="42" rx="8" transform="translate(600 3190.886)" fill="#fff" opacity="0.6"/>
    <g id="Group_50377" data-name="Group 50377" transform="translate(607 3197.886)" clip-path="url(#clip-path)">
      <path id="Path_74754" data-name="Path 74754" d="M11.964,17.428l-1.559,1.81L7.218,22.944,3.892,26.817q-.684.8-1.37,1.59a.216.216,0,0,1-.139.074c-.768,0-1.537,0-2.305,0a.345.345,0,0,1-.063-.017L10.874,15.837,0,0H.2q3.96,0,7.919,0a.294.294,0,0,1,.279.143q1.271,1.863,2.55,3.72L14.127,8.5l1.286,1.871c.02.029.044.057.076.1l.637-.738,4.964-5.77Q22.744,2.034,24.4.111a.294.294,0,0,1,.188-.1c.753-.007,1.505,0,2.258,0,.02,0,.04,0,.089.008-.132.155-.251.3-.371.435L22.308,5.4l-5.024,5.845c-.2.237-.406.477-.616.709a.15.15,0,0,0-.015.225q1.6,2.314,3.184,4.633l2.952,4.3L26.6,26.66l1.243,1.811c-.062,0-.1.011-.148.011q-4,0-8,0a.256.256,0,0,1-.235-.136q-1.3-1.9-2.6-3.8-2.372-3.453-4.745-6.905l-.151-.221M3.35,1.855c.031.049.046.075.063.1l2.306,3.3,4.789,6.854,5.022,7.187q2.552,3.652,5.1,7.3a.255.255,0,0,0,.244.121c1.145,0,2.289,0,3.434,0,.049,0,.1-.006.164-.01-.027-.046-.044-.078-.064-.107q-1.891-2.709-3.784-5.417-2.068-2.958-4.137-5.916-1.861-2.663-3.719-5.328Q10.984,7.386,9.2,4.833q-1-1.437-2.012-2.873a.235.235,0,0,0-.153-.1c-1.218-.006-2.435,0-3.682,0" transform="translate(0 0)" fill="#232a35"/>
    </g>
  </g>
</svg>
